<svg width="24" height="24" viewBox="0 0 24 24" fill="none" xmlns="http://www.w3.org/2000/svg">
<path d="M12 15.5607C12.9903 15.5607 13.8312 15.2147 14.5226 14.5226C15.2147 13.8312 15.5607 12.9903 15.5607 12C15.5607 11.0097 15.2147 10.1688 14.5226 9.47738C13.8312 8.78534 12.9903 8.43932 12 8.43932C11.0097 8.43932 10.1688 8.78534 9.47738 9.47738C8.78534 10.1688 8.43932 11.0097 8.43932 12C8.43932 12.9903 8.78534 13.8312 9.47738 14.5226C10.1688 15.2147 11.0097 15.5607 12 15.5607ZM12 14.3592C11.3447 14.3592 10.7878 14.1297 10.3293 13.6707C9.87029 13.2122 9.64078 12.6553 9.64078 12C9.64078 11.3447 9.87029 10.7875 10.3293 10.3284C10.7878 9.87 11.3447 9.64078 12 9.64078C12.6553 9.64078 13.2125 9.87 13.6716 10.3284C14.13 10.7875 14.3592 11.3447 14.3592 12C14.3592 12.6553 14.13 13.2122 13.6716 13.6707C13.2125 14.1297 12.6553 14.3592 12 14.3592ZM12 18.1165C10.0922 18.1165 8.34087 17.6141 6.74592 16.6092C5.15155 15.6044 3.93204 14.2427 3.08738 12.5243C3.05825 12.466 3.03641 12.3894 3.02184 12.2945C3.00728 12.2001 3 12.1019 3 12C3 11.8981 3.00728 11.7996 3.02184 11.7047C3.03641 11.6103 3.05825 11.534 3.08738 11.4757C3.93204 9.75728 5.15155 8.39563 6.74592 7.39078C8.34087 6.38592 10.0922 5.8835 12 5.8835C13.9078 5.8835 15.6588 6.38592 17.2532 7.39078C18.8482 8.39563 20.068 9.75728 20.9126 11.4757C20.9417 11.534 20.9636 11.6103 20.9782 11.7047C20.9927 11.7996 21 11.8981 21 12C21 12.1019 20.9927 12.2001 20.9782 12.2945C20.9636 12.3894 20.9417 12.466 20.9126 12.5243C20.068 14.2427 18.8482 15.6044 17.2532 16.6092C15.6588 17.6141 13.9078 18.1165 12 18.1165ZM12 16.8058C13.6456 16.8058 15.1567 16.3724 16.5332 15.5056C17.9091 14.6394 18.9612 13.4709 19.6893 12C18.9612 10.5291 17.9091 9.36029 16.5332 8.4935C15.1567 7.62728 13.6456 7.19418 12 7.19418C10.3544 7.19418 8.8433 7.62728 7.4668 8.4935C6.09087 9.36029 5.03884 10.5291 4.31068 12C5.03884 13.4709 6.09087 14.6394 7.4668 15.5056C8.8433 16.3724 10.3544 16.8058 12 16.8058Z" fill="#000000"/>
</svg>
