<svg width="24" height="24" viewBox="0 0 24 24" fill="none" xmlns="http://www.w3.org/2000/svg">
<path d="M15.2985 12.3932L14.3155 11.4102C14.4466 10.682 14.2392 10.0305 13.6934 9.45553C13.147 8.88 12.4806 8.65777 11.6942 8.78884L10.7112 7.80583C10.915 7.71845 11.1189 7.65291 11.3228 7.60922C11.5267 7.56554 11.7524 7.54369 12 7.54369C12.9903 7.54369 13.8312 7.88971 14.5226 8.58175C15.2147 9.2732 15.5607 10.1141 15.5607 11.1044C15.5607 11.3519 15.5388 11.5812 15.4951 11.792C15.4515 12.0035 15.3859 12.2039 15.2985 12.3932ZM18.0728 15.1019L17.1117 14.2063C17.665 13.784 18.1567 13.3215 18.5866 12.8187C19.0159 12.3166 19.3835 11.7451 19.6893 11.1044C18.9612 9.6335 17.9161 8.46466 16.5542 7.59787C15.1928 6.73165 13.6748 6.29854 12 6.29854C11.5777 6.29854 11.1626 6.32767 10.7549 6.38592C10.3471 6.44418 9.9466 6.53155 9.5534 6.64806L8.5267 5.62136C9.0801 5.40291 9.64456 5.24272 10.2201 5.14078C10.795 5.03884 11.3884 4.98786 12 4.98786C13.9369 4.98786 15.7025 5.50107 17.2969 6.52748C18.8918 7.55447 20.0971 8.90534 20.9126 10.5801C20.9417 10.6384 20.9636 10.7147 20.9782 10.809C20.9927 10.904 21 11.0024 21 11.1044C21 11.2063 20.9927 11.3045 20.9782 11.3988C20.9636 11.4938 20.9417 11.5704 20.9126 11.6286C20.5777 12.3131 20.1734 12.9466 19.6998 13.5291C19.2268 14.1117 18.6845 14.6359 18.0728 15.1019ZM18.3131 19.7112L15.2549 16.6529C14.8034 16.8277 14.3048 16.966 13.7589 17.068C13.2125 17.1699 12.6262 17.2209 12 17.2209C10.0485 17.2209 8.27913 16.7077 6.69175 15.6813C5.10437 14.6543 3.90291 13.3034 3.08738 11.6286C3.05825 11.5704 3.03641 11.4938 3.02184 11.3988C3.00728 11.3045 3 11.2063 3 11.1044C3 11.0024 3.00728 10.9078 3.02184 10.8204C3.03641 10.733 3.05825 10.6529 3.08738 10.5801C3.42233 9.91019 3.82282 9.29126 4.28883 8.7233C4.75485 8.15534 5.25728 7.65291 5.79612 7.21602L3.8301 5.22816C3.69903 5.09709 3.6335 4.94418 3.6335 4.76942C3.6335 4.59466 3.69903 4.43447 3.8301 4.28884C3.96117 4.17233 4.11786 4.11408 4.30019 4.11408C4.48194 4.11408 4.63107 4.17233 4.74757 4.28884L19.2524 18.7937C19.3689 18.9102 19.431 19.0558 19.4385 19.2306C19.4455 19.4053 19.3835 19.5655 19.2524 19.7112C19.1214 19.8277 18.965 19.8859 18.7832 19.8859C18.6009 19.8859 18.4442 19.8277 18.3131 19.7112ZM6.71359 8.1335C6.24757 8.49757 5.7999 8.93825 5.37058 9.45553C4.94068 9.97223 4.58738 10.5218 4.31068 11.1044C5.03884 12.5752 6.08359 13.7438 7.44495 14.61C8.80689 15.4768 10.3252 15.9102 12 15.9102C12.3932 15.9102 12.7864 15.8773 13.1796 15.8115C13.5728 15.7462 13.9078 15.6772 14.1845 15.6044L13.0922 14.4684C12.932 14.5267 12.7573 14.5739 12.568 14.61C12.3786 14.6467 12.1893 14.665 12 14.665C11.0097 14.665 10.1688 14.319 9.47738 13.627C8.78534 12.9355 8.43932 12.0947 8.43932 11.1044C8.43932 10.9296 8.45767 10.7438 8.49437 10.5469C8.53049 10.3506 8.57767 10.1723 8.63592 10.0121L6.71359 8.1335Z" fill="#000000"/>
</svg>
